<?xml version="1.0" encoding="utf-8"?>
<!-- Generator: Adobe Illustrator 28.2.0, SVG Export Plug-In . SVG Version: 6.00 Build 0)  -->
<svg version="1.1" id="Layer_1" xmlns="http://www.w3.org/2000/svg" xmlns:xlink="http://www.w3.org/1999/xlink" x="0px" y="0px"
	 viewBox="0 0 171.7 203.2" style="enable-background:new 0 0 171.7 203.2;" xml:space="preserve">
<style type="text/css">
	.st0{fill:none;}
	.st1{opacity:0.51;}
	.st2{fill:#59C5CA;}
	.st3{fill:#0494C4;}
	.st4{opacity:0.67;fill:#A182BC;}
	.st5{fill:#F7A426;}
</style>
<g>
	<g>
		<path class="st0" d="M27.9,122.5"/>
	</g>
	<g>
		<path class="st0" d="M24,178.5"/>
	</g>
	<g>
		<path class="st1" d="M20.6,185.8c0,1.5,0.2,2.4,0.2,2.5c-0.1-1.2-0.2-2.4-0.2-3.6C20.6,185.1,20.6,185.5,20.6,185.8z"/>
		<path class="st1" d="M29.2,157.1c-0.1,0.1-0.2,0.3-0.3,0.4c0.1-0.2,0.3-0.4,0.4-0.6C29.3,156.9,29.2,157,29.2,157.1z"/>
		<path class="st1" d="M27.3,160c0,0,0.1-0.1,0.1-0.1C27.4,159.9,27.4,160,27.3,160z"/>
		<path class="st1" d="M28,158.9c0.2-0.3,0.3-0.5,0.5-0.8C28.3,158.3,28.2,158.6,28,158.9z"/>
		<path d="M27.4,159.9c0.2-0.3,0.4-0.7,0.6-1C27.8,159.2,27.6,159.5,27.4,159.9z"/>
		<path d="M29.5,156.5c-0.1,0.1-0.1,0.2-0.2,0.3C29.4,156.7,29.5,156.6,29.5,156.5L29.5,156.5z"/>
		<path d="M20.7,188.3C20.7,188.3,20.7,188.3,20.7,188.3L20.7,188.3C20.7,188.3,20.7,188.3,20.7,188.3z"/>
		<path d="M28.5,158.1c0.1-0.2,0.3-0.4,0.4-0.6C28.8,157.7,28.6,157.9,28.5,158.1z"/>
		<path class="st2" d="M138.3,81c-4,4.8-8.7,9.3-13.9,13.5c-5.2,4.2-10.8,8.1-16.6,11.9c-5.8,3.7-11.9,7.3-17.9,10.7
			c-6.1,3.4-12.2,6.7-18.1,9.9c-6,3.2-11.8,6.4-17.3,9.6c-5.5,3.2-10.6,6.5-15.1,9.8c-1.1,0.8-2.1,1.6-3,2.5
			c-0.5,0.4-0.9,0.9-1.4,1.3c-0.4,0.4-0.9,0.9-1.3,1.3c-1.5,1.7-2.9,3.4-4.1,5.1c-0.1,0.1-0.1,0.2-0.2,0.3c-0.1,0.2-0.3,0.4-0.4,0.6
			c-0.1,0.2-0.3,0.4-0.4,0.6c-0.2,0.3-0.3,0.5-0.5,0.8c-0.2,0.3-0.4,0.7-0.6,1c0,0-0.1,0.1-0.1,0.1c-1.7,3-2.9,5.9-3.8,8.7
			c-1.3,3.8-2,7.3-2.4,10.2c-0.4,2.3-0.5,4.2-0.5,5.8c0,1.2,0.1,2.4,0.2,3.6c0,0,0,0,0,0l0,0c0.5,5.2,1.9,10.3,4.6,14.9
			c-0.9-16,4.3-27.9,13.5-37.6c15.4-16.2,41.7-26.6,68.2-40.7c18.1-9.7,29.7-27.5,34-47.5C140.2,78.6,139.3,79.8,138.3,81z"/>
	</g>
	<path class="st1" d="M142.1,48.1c0,0,0,0.1,0,0.1c0,0.1,0.1,0.1,0.1,0.2C142.2,48.3,142.2,48.2,142.1,48.1z"/>
	<path d="M10.2,160.2"/>
	<path class="st3" d="M17.4,172.1"/>
	<g>
		<path d="M17.4,172c0-0.2,0-0.5,0-0.7C17.4,171.6,17.4,171.8,17.4,172z"/>
		<path class="st4" d="M17.5,170c0,0.4,0,0.9-0.1,1.3C17.5,170.9,17.5,170.4,17.5,170z"/>
		<path class="st4" d="M22.3,196.3c0.8,2.4,1.8,4.7,3,6.9C24.4,201.3,23.3,199,22.3,196.3z"/>
		<path class="st4" d="M17.9,179c0,0.2,0.1,0.4,0.1,0.6c-0.4-2.6-0.6-5.1-0.6-7.5C17.4,174.6,17.6,176.9,17.9,179z"/>
		<path d="M6.6,181.1c5.3,11.5,12.9,19.9,18.7,22.1c-1.3-2.2-2.3-4.5-3-6.9c-1.8-4.9-3.5-10.9-4.3-16.7c0-0.2-0.1-0.4-0.1-0.6
			c-0.3-2-0.5-4.3-0.5-6.9c0-0.2,0-0.5,0-0.7c0-0.4,0-0.9,0.1-1.3c0-0.1,0-0.3,0-0.4L6.6,181.1z"/>
	</g>
	<g>
		<path d="M12.9,159.7c-0.1,1-0.2,2-0.2,2.9c0.1-1.6,0.2-3.1,0.4-4.5C13,158.6,12.9,159.2,12.9,159.7z"/>
		<g>
			<defs>
				<path id="SVGID_1_" d="M137.2,30.6c-0.5-1.9-1-3.6-1.7-5.2C131.2,16,125,7.3,116.6,0c0,0-0.6,0-0.7,0.3
					c-0.1,0.4,0.5,1.7,0.5,1.7c12.4,14.7,14.4,27,9.9,37.8c-2.8,6.7-8.1,12.8-15,18.5c-25.8,21.2-73.6,36.6-94.3,55.5
					c-22.1,20.2-19.4,48-10.4,67.3c5.3,11.5,12.9,19.9,18.7,22.1c-8.1-9.3-12-22.4-12.6-34.3l-0.3-0.9c-0.7-1.6-1.5-4-2.1-7.2
					c-0.6-3.2-1-7.2-0.6-11.8c0.4-4.6,1.6-9.9,4.3-15.2c1.3-2.6,3-5.3,5.1-7.7c0.5-0.6,1.1-1.2,1.6-1.8c0.6-0.6,1.2-1.2,1.8-1.7
					c1.2-1.1,2.5-2.3,3.8-3.2c5.2-4,10.9-7.4,16.9-10.7c6-3.3,12.2-6.5,18.5-9.5c6.3-3.1,12.7-6.2,19.1-9.3
					c6.3-3.1,12.6-6.3,18.7-9.6c6-3.3,11.8-6.8,17.1-10.5c0.4-0.3,0.8-0.5,1.1-0.8c2.2-1.6,4.3-3.3,6.3-5c2.3-2,4.4-4.1,6.3-6.2
					c3.7-4.3,6.3-9,7.4-13.7c0.1-0.3,0.1-0.6,0.2-0.9C138.5,38.7,138.2,34.4,137.2,30.6z"/>
			</defs>
			<use xlink:href="#SVGID_1_"  style="overflow:visible;fill:#EF4763;"/>
			<clipPath id="SVGID_00000048499742638077382750000003411613903880339598_">
				<use xlink:href="#SVGID_1_"  style="overflow:visible;"/>
			</clipPath>
		</g>
		<path d="M16,147.5L16,147.5c-1.4,2.9-2.4,6.5-2.9,10.6c0.4-2.5,1.1-5.2,2.1-8.3C15.4,148.9,15.7,148.2,16,147.5z"/>
		<path class="st5" d="M142.2,48.4c0-0.1-0.1-0.1-0.1-0.2c-0.4,1.8-1,3.6-1.7,5.4c-1.2,2.9-2.8,5.7-4.7,8.4
			c-1.9,2.7-4.1,5.2-6.4,7.6c-0.9,0.9-1.8,1.8-2.8,2.7c-1.6,1.4-3.2,2.8-4.9,4.2c-5.4,4.4-11.3,8.3-17.4,12.1
			c-6.1,3.7-12.4,7.2-18.8,10.5c-3.2,1.7-6.4,3.3-9.6,4.9c-3.2,1.6-6.3,3.1-9.5,4.7c-6.2,3.1-12.4,6.1-18.2,9.3
			c-5.8,3.1-11.2,6.3-15.9,9.6c-1.2,0.9-2.2,1.6-3.3,2.5c-1,0.8-2,1.7-2.9,2.6c-1.8,1.8-3.4,3.7-4.8,5.6c-2.2,3.2-4.1,6.2-5.4,9.4
			c-0.3,0.7-0.6,1.5-0.8,2.2c-1,3.2-1.7,5.8-2.1,8.3c-0.2,1.5-0.3,3-0.4,4.5c-0.1,2-0.1,4.1,0,6.3c0.6,11.9,4.6,25,12.6,34.3
			c-1.3-2.2-2.3-4.5-3-6.9c-1.8-4.9-3.5-10.9-4.3-16.7c0-0.2-0.1-0.4-0.1-0.6c-0.3-2-0.5-4.3-0.5-6.9c0-0.2,0-0.5,0-0.7
			c0-0.4,0-0.9,0.1-1.3c0-0.8,0.1-1.6,0.2-2.4c0.5-4.4,1.7-9.4,4.1-14.4c0,0,0-0.1,0.1-0.1c2.4-5.1,6.2-10.3,11.3-14.5
			c2.4-2,5-3.9,7.7-5.7c2.7-1.8,5.4-3.6,8.2-5.3c5.7-3.4,11.6-6.7,17.6-9.9c6-3.2,12.1-6.4,18.2-9.6c6.1-3.2,12.1-6.5,17.9-9.8
			c5.8-3.3,11.3-6.8,16.5-10.4c5.1-3.6,9.8-7.4,13.8-11.4c3.8-3.9,7-8,9-12.2c1.3-2.4,2.1-5.1,2.1-8
			C144.1,53.3,143.4,50.7,142.2,48.4z"/>
	</g>
	<g>
		<path d="M65.1,176.8v8.4h-7.3c-1,0-1.7,0.1-2.1,0.4c-0.4,0.3-0.6,0.8-0.6,1.5c0,0.8,0.2,1.3,0.6,1.6c0.4,0.2,1.3,0.4,2.6,0.4h7.6
			v10.7H57c-4.1,0-7.3-1-9.5-3c-2.2-2-3.3-4.8-3.3-8.5v-14.7c0-3.6,1-6.4,3.1-8.4c2.1-2,5-3,8.8-3h9.8V173h-7.2
			c-1.9,0-2.9,0.6-2.9,1.9c0,0.7,0.2,1.2,0.7,1.5c0.5,0.3,1.3,0.4,2.5,0.4H65.1z"/>
		<path d="M88.7,173v26.7H77.5V173h-8.6v-10.8h28.4V173H88.7z"/>
		<path d="M100.7,162.2h11.2v22.3c0,1.7,0.3,2.9,0.8,3.5c0.6,0.6,1.7,0.9,3.3,0.9h0.6v10.9h-3c-4.1,0-7.3-1.2-9.6-3.6
			c-2.3-2.4-3.4-5.7-3.4-9.9V162.2z"/>
		<path d="M136.4,180.9v9.9h-5.5v8.9h-11.2v-23.9c0-4.6,1.3-8.2,3.8-10.8c2.5-2.6,6.1-3.8,10.7-3.8c4.4,0,7.7,1.2,9.8,3.5
			c2.1,2.3,3.2,5.9,3.2,10.7v24.2h-11.2v-23.5c0-1.5-0.2-2.5-0.5-3.1c-0.4-0.6-1-0.9-1.9-0.9c-1.8,0-2.6,1.3-2.6,3.9v4.7H136.4z"/>
		<path d="M171.7,162v10.7c-0.8-0.3-1.4-0.4-1.9-0.4c-0.8,0-1.6,0.3-2.2,0.9c-0.6,0.6-0.9,1.4-0.9,2.3c0,0.8,0.3,1.7,1,2.9l0.9,1.5
			c1.5,2.7,2.3,5.3,2.3,7.8c0,3.6-1.3,6.7-3.9,9.3c-2.6,2.5-5.8,3.8-9.6,3.8c-1.8,0-3.6-0.4-5.4-1.2v-10.9c1.1,0.7,2,1,2.8,1
			c1,0,1.8-0.3,2.4-0.8c0.7-0.6,1-1.3,1-2.1c0-0.5-0.5-1.7-1.6-3.6c-1.7-2.9-2.5-5.9-2.5-8.8c0-3.5,1.3-6.6,3.8-9.1
			c2.5-2.6,5.6-3.8,9.1-3.8C168.7,161.3,170.2,161.5,171.7,162z"/>
	</g>
</g>
</svg>
