<?xml version="1.0" encoding="UTF-8"?>
<svg id="Layer_1" data-name="Layer 1" xmlns="http://www.w3.org/2000/svg" version="1.1" viewBox="0 0 171.7 203.2">
  <defs>
    <style>
      .cls-1 {
        fill: #a182bc;
        opacity: .7;
      }

      .cls-1, .cls-2, .cls-3, .cls-4, .cls-5, .cls-6, .cls-7, .cls-8, .cls-9 {
        stroke-width: 0px;
      }

      .cls-1, .cls-6 {
        isolation: isolate;
      }

      .cls-2 {
        fill: #ef4763;
      }

      .cls-3 {
        fill: none;
      }

      .cls-4 {
        fill: #f7a426;
      }

      .cls-5, .cls-6 {
        fill: #000;
      }

      .cls-6 {
        opacity: .5;
      }

      .cls-7 {
        fill: #0494c4;
      }

      .cls-8 {
        fill: #fff;
      }

      .cls-9 {
        fill: #59c5ca;
      }
    </style>
  </defs>
  <path class="cls-3" d="M27.9,122.5"/>
  <path class="cls-3" d="M24,178.5"/>
  <g>
    <path class="cls-6" d="M20.6,185.8c0,1.5.2,2.4.2,2.5-.1-1.2-.2-2.4-.2-3.6v1.1Z"/>
    <path class="cls-6" d="M29.2,157.1c-.1.1-.2.3-.3.4.1-.2.3-.4.4-.6,0,0-.1.1-.1.2Z"/>
    <path class="cls-6" d="M27.3,160h.1c0-.1,0,0-.1,0Z"/>
    <path class="cls-6" d="M28,158.9c.2-.3.3-.5.5-.8-.2.2-.3.5-.5.8Z"/>
    <path class="cls-5" d="M27.4,159.9c.2-.3.4-.7.6-1-.2.3-.4.6-.6,1Z"/>
    <path class="cls-5" d="M29.5,156.5c-.1.1-.1.2-.2.3.1-.1.2-.2.2-.3h0Z"/>
    <path class="cls-5" d="M20.7,188.3h0Z"/>
    <path class="cls-5" d="M28.5,158.1c.1-.2.3-.4.4-.6-.1.2-.3.4-.4.6Z"/>
    <path class="cls-9" d="M138.3,81c-4,4.8-8.7,9.3-13.9,13.5-5.2,4.2-10.8,8.1-16.6,11.9-5.8,3.7-11.9,7.3-17.9,10.7-6.1,3.4-12.2,6.7-18.1,9.9-6,3.2-11.8,6.4-17.3,9.6-5.5,3.2-10.6,6.5-15.1,9.8-1.1.8-2.1,1.6-3,2.5-.5.4-.9.9-1.4,1.3-.4.4-.9.9-1.3,1.3-1.5,1.7-2.9,3.4-4.1,5.1-.1.1-.1.2-.2.3-.1.2-.3.4-.4.6-.1.2-.3.4-.4.6-.2.3-.3.5-.5.8s-.4.7-.6,1h-.1c-1.7,3.1-2.9,6-3.8,8.8-1.3,3.8-2,7.3-2.4,10.2-.4,2.3-.5,4.2-.5,5.8s.1,2.4.2,3.6h0c.5,5.2,1.9,10.3,4.6,14.9-.9-16,4.3-27.9,13.5-37.6,15.4-16.2,41.7-26.6,68.2-40.7,18.1-9.7,29.7-27.5,34-47.5-1,1.2-1.9,2.4-2.9,3.6Z"/>
  </g>
  <path class="cls-6" d="M142.1,48.1h0c0,.2.1.2.1.3,0,0,0-.2-.1-.3Z"/>
  <path class="cls-5" d="M10.2,160.2"/>
  <path class="cls-7" d="M17.4,172.1"/>
  <g>
    <path class="cls-5" d="M17.4,172v-.7.7Z"/>
    <path class="cls-1" d="M17.5,170c0,.4,0,.9-.1,1.3.1-.4.1-.9.1-1.3Z"/>
    <path class="cls-1" d="M22.3,196.3c.8,2.4,1.8,4.7,3,6.9-.9-1.9-2-4.2-3-6.9Z"/>
    <path class="cls-1" d="M17.9,179c0,.2.1.4.1.6-.4-2.6-.6-5.1-.6-7.5,0,2.5.2,4.8.5,6.9Z"/>
    <path class="cls-5" d="M6.6,181.1c5.3,11.5,12.9,19.9,18.7,22.1-1.3-2.2-2.3-4.5-3-6.9-1.8-4.9-3.5-10.9-4.3-16.7,0-.2-.1-.4-.1-.6-.3-2-.5-4.3-.5-6.9v-.7c0-.4,0-.9.1-1.3v-.4l-10.9,11.4Z"/>
  </g>
  <g>
    <path class="cls-5" d="M12.9,159.7c-.1,1-.2,2-.2,2.9.1-1.6.2-3.1.4-4.5,0,.5-.2,1.1-.2,1.6Z"/>
    <path id="SVGID" class="cls-2" d="M137.2,30.6c-.5-1.9-1-3.6-1.7-5.2C131.2,16,125,7.3,116.6,0,116.6,0,116,0,115.9.3c0,.4.5,1.7.5,1.7,12.4,14.7,14.4,27,9.9,37.8-2.8,6.7-8.1,12.8-15,18.5-25.8,21.2-73.6,36.6-94.3,55.5-22.1,20.2-19.4,48-10.4,67.3,5.3,11.5,12.9,19.9,18.7,22.1-8.1-9.3-12-22.4-12.6-34.3l-.3-.9c-.7-1.6-1.5-4-2.1-7.2-.6-3.2-1-7.2-.6-11.8s1.6-9.9,4.3-15.2c1.3-2.6,3-5.3,5.1-7.7.5-.6,1.1-1.2,1.6-1.8.6-.6,1.2-1.2,1.8-1.7,1.2-1.1,2.5-2.3,3.8-3.2,5.2-4,10.9-7.4,16.9-10.7,6-3.3,12.2-6.5,18.5-9.5,6.3-3.1,12.7-6.2,19.1-9.3,6.3-3.1,12.6-6.3,18.7-9.6,6-3.3,11.8-6.8,17.1-10.5.4-.3.8-.5,1.1-.8,2.2-1.6,4.3-3.3,6.3-5,2.3-2,4.4-4.1,6.3-6.2,3.7-4.3,6.3-9,7.4-13.7.1-.3.1-.6.2-.9.6-4.5.3-8.8-.7-12.6Z"/>
    <path class="cls-5" d="M16,147.5h0c-1.4,2.9-2.4,6.5-2.9,10.6.4-2.5,1.1-5.2,2.1-8.3.2-.9.5-1.6.8-2.3Z"/>
    <path class="cls-4" d="M142.2,48.4c0,0-.1,0-.1-.2-.4,1.8-1,3.6-1.7,5.4-1.2,2.9-2.8,5.7-4.7,8.4s-4.1,5.2-6.4,7.6c-.9.9-1.8,1.8-2.8,2.7-1.6,1.4-3.2,2.8-4.9,4.2-5.4,4.4-11.3,8.3-17.4,12.1-6.1,3.7-12.4,7.2-18.8,10.5-3.2,1.7-6.4,3.3-9.6,4.9s-6.3,3.1-9.5,4.7c-6.2,3.1-12.4,6.1-18.2,9.3-5.8,3.1-11.2,6.3-15.9,9.6-1.2.9-2.2,1.6-3.3,2.5-1,.8-2,1.7-2.9,2.6-1.8,1.8-3.4,3.7-4.8,5.6-2.2,3.2-4.1,6.2-5.4,9.4-.3.7-.6,1.5-.8,2.2-1,3.2-1.7,5.8-2.1,8.3-.2,1.5-.3,3-.4,4.5-.1,2-.1,4.1,0,6.3.6,11.9,4.6,25,12.6,34.3-1.3-2.2-2.3-4.5-3-6.9-1.8-4.9-3.5-10.9-4.3-16.7,0-.2-.1-.4-.1-.6-.3-2-.5-4.3-.5-6.9v-.7c0-.4,0-.9.1-1.3,0-.8.1-1.6.2-2.4.5-4.4,1.7-9.4,4.1-14.4,0,0,0-.1.1-.1,2.4-5.1,6.2-10.3,11.3-14.5,2.4-2,5-3.9,7.7-5.7s5.4-3.6,8.2-5.3c5.7-3.4,11.6-6.7,17.6-9.9,6-3.2,12.1-6.4,18.2-9.6s12.1-6.5,17.9-9.8,11.3-6.8,16.5-10.4c5.1-3.6,9.8-7.4,13.8-11.4,3.8-3.9,7-8,9-12.2,1.3-2.4,2.1-5.1,2.1-8,.1-3.2-.6-5.8-1.8-8.1Z"/>
  </g>
  <g>
    <path class="cls-8" d="M65.1,176.8v8.4h-7.3c-1,0-1.7.1-2.1.4-.4.3-.6.8-.6,1.5s.2,1.3.6,1.6c.4.2,1.3.4,2.6.4h7.6v10.7h-8.9c-4.1,0-7.3-1-9.5-3s-3.3-4.8-3.3-8.5v-14.7c0-3.6,1-6.4,3.1-8.4s5-3,8.8-3h9.8v10.8h-7.2c-1.9,0-2.9.6-2.9,1.9s.2,1.2.7,1.5,1.3.4,2.5.4h6.1Z"/>
    <path class="cls-8" d="M88.7,173v26.7h-11.2v-26.7h-8.6v-10.8h28.4v10.8h-8.6Z"/>
    <path class="cls-8" d="M100.7,162.2h11.2v22.3c0,1.7.3,2.9.8,3.5.6.6,1.7.9,3.3.9h.6v10.9h-3c-4.1,0-7.3-1.2-9.6-3.6-2.3-2.4-3.4-5.7-3.4-9.9v-24.1h0Z"/>
    <path class="cls-8" d="M136.4,180.9v9.9h-5.5v8.9h-11.2v-23.9c0-4.6,1.3-8.2,3.8-10.8s6.1-3.8,10.7-3.8,7.7,1.2,9.8,3.5,3.2,5.9,3.2,10.7v24.2h-11.2v-23.5c0-1.5-.2-2.5-.5-3.1-.4-.6-1-.9-1.9-.9-1.8,0-2.6,1.3-2.6,3.9v4.7h5.4v.2Z"/>
    <path class="cls-8" d="M171.7,162v10.7c-.8-.3-1.4-.4-1.9-.4-.8,0-1.6.3-2.2.9s-.9,1.4-.9,2.3.3,1.7,1,2.9l.9,1.5c1.5,2.7,2.3,5.3,2.3,7.8,0,3.6-1.3,6.7-3.9,9.3-2.6,2.5-5.8,3.8-9.6,3.8s-3.6-.4-5.4-1.2v-10.9c1.1.7,2,1,2.8,1s1.8-.3,2.4-.8c.7-.6,1-1.3,1-2.1s-.5-1.7-1.6-3.6c-1.7-2.9-2.5-5.9-2.5-8.8s1.3-6.6,3.8-9.1c2.5-2.6,5.6-3.8,9.1-3.8,1.7-.2,3.2,0,4.7.5Z"/>
  </g>
</svg>