<?xml version="1.0" encoding="UTF-8"?>
<svg id="Layer_1" data-name="Layer 1" xmlns="http://www.w3.org/2000/svg" viewBox="0 0 68.33 80.88">
  <defs>
    <style>
      .cls-1 {
        fill: #a182bc;
        opacity: .67;
      }

      .cls-1, .cls-2 {
        isolation: isolate;
      }

      .cls-1, .cls-2, .cls-3, .cls-4, .cls-5, .cls-6 {
        stroke-width: 0px;
      }

      .cls-2 {
        opacity: .51;
      }

      .cls-4 {
        fill: #f7a426;
      }

      .cls-5 {
        fill: #59c5ca;
      }

      .cls-6 {
        fill: #ef4763;
      }
    </style>
  </defs>
  <g>
    <path class="cls-2" d="M8.21,73.92c0,.6.08.95.08.99-.04-.48-.08-.95-.08-1.43v.44Z"/>
    <path class="cls-2" d="M11.64,62.5s-.08.12-.12.16c.04-.08.12-.16.16-.24,0,0-.04.04-.04.08Z"/>
    <path class="cls-2" d="M10.88,63.65l.04-.04s0,.04-.04.04Z"/>
    <path class="cls-2" d="M11.16,63.22c.08-.12.12-.2.2-.32-.08.08-.12.2-.2.32Z"/>
    <path class="cls-3" d="M10.92,63.61c.08-.12.16-.28.24-.4-.08.12-.16.24-.24.4Z"/>
    <path class="cls-3" d="M11.75,62.26s-.04.08-.08.12c.04-.04.08-.08.08-.12h0Z"/>
    <path class="cls-3" d="M11.36,62.9c.04-.08.12-.16.16-.24-.04.08-.12.16-.16.24Z"/>
    <path class="cls-5" d="M55.04,32.22c-1.59,1.91-3.46,3.7-5.53,5.37-2.07,1.67-4.3,3.22-6.6,4.73-2.31,1.47-4.73,2.9-7.12,4.26-2.43,1.35-4.85,2.67-7.2,3.94-2.39,1.27-4.69,2.55-6.88,3.82-2.19,1.27-4.22,2.59-6.01,3.9-.44.32-.84.64-1.19.99-.2.16-.36.36-.56.52-.16.16-.36.36-.52.52-.6.68-1.15,1.35-1.63,2.03-.04.04-.04.08-.08.12-.04.08-.12.16-.16.24-.04.08-.12.16-.16.24-.08.12-.12.2-.2.32s-.16.28-.24.4l-.04.04c-.68,1.19-1.15,2.35-1.51,3.46-.52,1.51-.8,2.9-.95,4.06-.16.92-.2,1.67-.2,2.31,0,.48.04.95.08,1.43h0c.2,2.07.76,4.1,1.83,5.93-.36-6.37,1.71-11.1,5.37-14.96,6.13-6.44,16.59-10.58,27.13-16.19,7.2-3.86,11.82-10.94,13.53-18.9-.4.48-.76.95-1.15,1.43Z"/>
  </g>
  <path class="cls-2" d="M56.55,19.14v.04s.04.04.04.08c0-.04,0-.08-.04-.12Z"/>
  <g>
    <path class="cls-1" d="M6.98,67.63c0,.16,0,.36-.04.52.04-.16.04-.36.04-.52Z"/>
    <path class="cls-1" d="M8.89,78.1c.32.95.72,1.87,1.19,2.75-.36-.76-.8-1.67-1.19-2.75Z"/>
    <path class="cls-1" d="M7.14,71.21c0,.08.04.16.04.24-.16-1.03-.24-2.03-.24-2.98,0,.99.08,1.91.2,2.75Z"/>
    <path class="cls-3" d="M2.64,72.05c2.11,4.58,5.13,7.92,7.44,8.79-.52-.88-.92-1.79-1.19-2.75-.72-1.95-1.39-4.34-1.71-6.64,0-.08-.04-.16-.04-.24-.12-.8-.2-1.71-.2-2.75v-.28c0-.16,0-.36.04-.52v-.16l-4.34,4.54Z"/>
  </g>
  <g>
    <path class="cls-3" d="M5.15,63.53c-.04.4-.08.8-.08,1.15.04-.64.08-1.23.16-1.79-.04.2-.08.44-.08.64Z"/>
    <path id="SVGID" class="cls-6" d="M54.6,12.17c-.2-.76-.4-1.43-.68-2.07-1.71-3.74-4.18-7.2-7.52-10.11,0,0-.24,0-.28.12-.04.16.2.68.2.68,4.93,5.85,5.73,10.74,3.94,15.04-1.11,2.67-3.22,5.09-5.97,7.36-10.26,8.43-29.28,14.56-37.52,22.08-8.79,8.04-7.72,19.1-4.14,26.77,2.11,4.58,5.13,7.92,7.44,8.79-3.22-3.7-4.77-8.91-5.01-13.65l-.12-.36c-.28-.64-.6-1.59-.84-2.86-.24-1.27-.4-2.86-.24-4.69.16-1.83.64-3.94,1.71-6.05.52-1.03,1.19-2.11,2.03-3.06.2-.24.44-.48.64-.72.24-.24.48-.48.72-.68.48-.44.99-.92,1.51-1.27,2.07-1.59,4.34-2.94,6.72-4.26,2.39-1.31,4.85-2.59,7.36-3.78,2.51-1.23,5.05-2.47,7.6-3.7,2.51-1.23,5.01-2.51,7.44-3.82,2.39-1.31,4.69-2.71,6.8-4.18.16-.12.32-.2.44-.32.88-.64,1.71-1.31,2.51-1.99.92-.8,1.75-1.63,2.51-2.47,1.47-1.71,2.51-3.58,2.94-5.45.04-.12.04-.24.08-.36.24-1.79.12-3.5-.28-5.01Z"/>
    <path class="cls-3" d="M6.38,58.68h0c-.56,1.15-.95,2.59-1.15,4.22.16-.99.44-2.07.84-3.3.08-.36.2-.64.32-.92Z"/>
    <path class="cls-4" d="M56.59,19.26s-.04-.04-.04-.08c-.16.72-.4,1.43-.68,2.15-.48,1.15-1.11,2.27-1.87,3.34s-1.63,2.07-2.55,3.02c-.36.36-.72.72-1.11,1.07-.64.56-1.27,1.11-1.95,1.67-2.15,1.75-4.5,3.3-6.92,4.81-2.43,1.47-4.93,2.86-7.48,4.18-1.27.68-2.55,1.31-3.82,1.95s-2.51,1.23-3.78,1.87c-2.47,1.23-4.93,2.43-7.24,3.7-2.31,1.23-4.46,2.51-6.33,3.82-.48.36-.88.64-1.31.99-.4.32-.8.68-1.15,1.03-.72.72-1.35,1.47-1.91,2.23-.88,1.27-1.63,2.47-2.15,3.74-.12.28-.24.6-.32.88-.4,1.27-.68,2.31-.84,3.3-.08.6-.12,1.19-.16,1.79-.04.8-.04,1.63,0,2.51.24,4.73,1.83,9.95,5.01,13.65-.52-.88-.92-1.79-1.19-2.75-.72-1.95-1.39-4.34-1.71-6.64,0-.08-.04-.16-.04-.24-.12-.8-.2-1.71-.2-2.75v-.28c0-.16,0-.36.04-.52,0-.32.04-.64.08-.95.2-1.75.68-3.74,1.63-5.73,0,0,0-.04.04-.04.95-2.03,2.47-4.1,4.5-5.77.95-.8,1.99-1.55,3.06-2.27,1.07-.72,2.15-1.43,3.26-2.11,2.27-1.35,4.61-2.67,7-3.94,2.39-1.27,4.81-2.55,7.24-3.82,2.43-1.27,4.81-2.59,7.12-3.9s4.5-2.71,6.56-4.14c2.03-1.43,3.9-2.94,5.49-4.54,1.51-1.55,2.78-3.18,3.58-4.85.52-.95.84-2.03.84-3.18.04-1.27-.24-2.31-.72-3.22Z"/>
  </g>
  <g>
    <path class="cls-3" d="M25.92,70.34v3.34h-2.9c-.4,0-.68.04-.84.16-.16.12-.24.32-.24.6,0,.32.08.52.24.64.16.08.52.16,1.03.16h3.02v4.26h-3.54c-1.63,0-2.9-.4-3.78-1.19-.88-.8-1.31-1.91-1.31-3.38v-5.85c0-1.43.4-2.55,1.23-3.34s1.99-1.19,3.5-1.19h3.9v4.3h-2.86c-.76,0-1.15.24-1.15.76,0,.28.08.48.28.6s.52.16.99.16h2.43Z"/>
    <path class="cls-3" d="M35.31,68.83v10.62h-4.46v-10.62h-3.42v-4.3h11.3v4.3h-3.42Z"/>
    <path class="cls-3" d="M40.08,64.53h4.46v8.87c0,.68.12,1.15.32,1.39.24.24.68.36,1.31.36h.24v4.34h-1.19c-1.63,0-2.9-.48-3.82-1.43-.92-.95-1.35-2.27-1.35-3.94v-9.59h.04Z"/>
    <path class="cls-3" d="M54.28,71.97v3.94h-2.19v3.54h-4.46v-9.51c0-1.83.52-3.26,1.51-4.3s2.43-1.51,4.26-1.51,3.06.48,3.9,1.39,1.27,2.35,1.27,4.26v9.63h-4.46v-9.35c0-.6-.08-.99-.2-1.23-.16-.24-.4-.36-.76-.36-.72,0-1.03.52-1.03,1.55v1.87h2.15v.08Z"/>
    <path class="cls-3" d="M68.33,64.45v4.26c-.32-.12-.56-.16-.76-.16-.32,0-.64.12-.88.36s-.36.56-.36.92c0,.32.12.68.4,1.15l.36.6c.6,1.07.92,2.11.92,3.1,0,1.43-.52,2.67-1.55,3.7-1.03.99-2.31,1.51-3.82,1.51-.72,0-1.43-.16-2.15-.48v-4.34c.44.28.8.4,1.11.4.4,0,.72-.12.95-.32.28-.24.4-.52.4-.84,0-.2-.2-.68-.64-1.43-.68-1.15-.99-2.35-.99-3.5,0-1.39.52-2.63,1.51-3.62.99-1.03,2.23-1.51,3.62-1.51.68-.08,1.27,0,1.87.2Z"/>
  </g>
</svg>