<?xml version="1.0" encoding="UTF-8"?>
<svg id="Layer_1" data-name="Layer 1" xmlns="http://www.w3.org/2000/svg" viewBox="0 0 1001.73 605.02">
  <defs>
    <style>
      .cls-1 {
        stroke-width: 0px;
      }
    </style>
  </defs>
  <path class="cls-1" d="M933.21,57.94H217.66c-.21,0-.41-.03-.62-.03H49.41l33.19-33.19c5.65-5.65,5.65-14.83,0-20.48s-14.83-5.65-20.48,0L4.24,62.12v.05c-5.65,5.65-5.65,14.83,0,20.48l57.88,57.88c5.65,5.65,14.83,5.65,20.48,0s5.65-14.83,0-20.48l-33.19-33.19h40.55v.19h843.25c21.77,0,39.42,17.65,39.42,39.42v410.05c0,21.77-17.65,39.42-39.42,39.42h-29.86c-8.04,0-14.55,6.51-14.55,14.55s6.51,14.55,14.55,14.55h29.87c37.84,0,68.51-30.67,68.51-68.51V126.46c0-37.84-30.67-68.51-68.51-68.51Z"/>
  <g>
    <path class="cls-1" d="M132.57,483.41c-4.99,0-8.73-.73-11.22-2.17-2.5-1.45-4.13-3.54-4.92-6.3-.79-2.76-1.18-5.84-1.18-9.25v-242.91c0-3.67.33-6.89.98-9.65.65-2.76,2.29-4.85,4.92-6.3,2.62-1.44,6.43-2.17,11.42-2.17s8.66.79,11.02,2.36,3.94,3.68,4.72,6.3c.79,2.63,1.18,5.78,1.18,9.45v246.45c-.53,4.99-2.04,8.6-4.53,10.83-2.5,2.23-6.63,3.35-12.4,3.35ZM214.07,483.01c-12.86,0-24.48-2.36-34.84-7.09-10.37-4.72-19.23-11.42-26.57-20.08-7.35-8.66-13.06-18.76-17.13-30.31-4.07-11.55-5.97-24.27-5.71-38.19,0-13.64,1.97-26.31,5.91-37.99,3.94-11.68,9.65-21.78,17.13-30.31,7.48-8.53,16.4-15.16,26.77-19.88,10.37-4.72,21.85-7.09,34.45-7.09s23.75,2.36,34.25,7.09c10.49,4.72,19.81,11.36,27.95,19.88,8.13,8.53,14.5,18.57,19.09,30.12,4.59,11.55,6.89,24.15,6.89,37.79s-2.3,26.71-6.89,38.39c-4.6,11.68-10.89,21.85-18.9,30.51-8.01,8.66-17.32,15.35-27.95,20.08-10.63,4.72-22.11,7.09-34.45,7.09ZM209.34,449.55c11.02,0,21-2.62,29.92-7.87,8.92-5.25,15.94-12.53,21.06-21.85,5.12-9.31,7.68-20.01,7.68-32.09s-2.56-22.83-7.68-32.28c-5.12-9.45-12.14-16.79-21.06-22.05-8.93-5.25-18.9-7.87-29.92-7.87s-20.93,2.69-29.72,8.07c-8.8,5.38-15.75,12.73-20.87,22.05-5.12,9.32-7.68,20.02-7.68,32.09s2.56,22.77,7.68,32.09c5.12,9.32,12.07,16.6,20.87,21.85,8.79,5.25,18.7,7.87,29.72,7.87Z"/>
    <path class="cls-1" d="M502.65,482.62c-5.78,0-9.98-1.18-12.6-3.54-2.63-2.36-4.07-6.03-4.33-11.02l1.57-19.69c-2.63,4.2-6.69,8.99-12.2,14.37-5.51,5.38-12.79,10.11-21.85,14.17-9.06,4.07-19.88,6.1-32.48,6.1s-24.35-2.5-35.24-7.48c-10.89-4.98-20.47-11.94-28.74-20.87-8.27-8.92-14.76-19.16-19.49-30.71-4.72-11.55-7.09-23.88-7.09-37.01s2.36-25,7.09-36.42c4.72-11.42,11.28-21.46,19.69-30.12,8.4-8.66,18.04-15.48,28.94-20.47,10.89-4.98,22.5-7.48,34.84-7.48,11.55,0,21.39,1.51,29.53,4.53,8.13,3.02,15.16,6.96,21.06,11.81,5.91,4.86,11.08,10.3,15.55,16.34l-1.18-16.54c0-5.77,1.38-9.9,4.13-12.4,2.76-2.49,7.15-3.74,13.19-3.74,4.98,0,8.59.79,10.83,2.36,2.23,1.57,3.74,3.81,4.53,6.69.79,2.89,1.18,6.43,1.18,10.63v151.97c0,3.68-.39,6.96-1.18,9.84-.79,2.89-2.36,5.06-4.72,6.5-2.36,1.44-6.04,2.17-11.02,2.17ZM426.27,449.94c10.76,0,20.47-2.76,29.13-8.27,8.66-5.51,15.61-12.92,20.87-22.24,5.25-9.31,7.87-20.01,7.87-32.09s-2.69-23.16-8.07-32.48c-5.38-9.31-12.47-16.6-21.26-21.85-8.8-5.25-18.57-7.87-29.33-7.87-12.08,0-22.64,2.76-31.69,8.27s-16.21,12.99-21.46,22.44c-5.25,9.45-7.87,20.21-7.87,32.28s2.62,22.38,7.87,31.69c5.25,9.32,12.53,16.67,21.85,22.05,9.31,5.38,20.01,8.07,32.09,8.07Z"/>
    <path class="cls-1" d="M656.19,483.8c-13.65,0-26.45-2.23-38.39-6.69-11.95-4.46-22.44-10.83-31.5-19.09-9.06-8.27-16.14-18.31-21.26-30.12-5.12-11.81-7.68-25.2-7.68-40.16s2.56-28.28,7.68-39.96c5.12-11.68,12.14-21.71,21.06-30.12,8.92-8.4,19.35-14.83,31.3-19.29,11.94-4.46,24.61-6.69,37.99-6.69,8.92,0,17.72,1.38,26.38,4.13,8.66,2.76,16.34,6.3,23.03,10.63s11.48,8.86,14.37,13.58c2.62,3.41,4.53,6.24,5.71,8.46,1.18,2.23,1.24,4.79.2,7.68-1.05,2.1-2.5,4-4.33,5.71-1.84,1.71-3.68,3.09-5.51,4.13-4.99,3.68-9.71,4.2-14.17,1.57-2.89-2.89-6.1-5.57-9.65-8.07-3.54-2.49-7.28-4.72-11.22-6.69-3.94-1.97-7.94-3.6-12.01-4.92-4.07-1.31-8.34-1.97-12.8-1.97-12.34,0-23.23,2.63-32.68,7.87-9.45,5.25-16.73,12.47-21.85,21.65-5.12,9.19-7.68,19.95-7.68,32.28s2.56,23.1,7.68,32.28c5.12,9.19,12.33,16.41,21.65,21.65,9.31,5.25,20.01,7.87,32.09,7.87,5.25,0,10.49-.72,15.75-2.17,5.25-1.44,10.1-3.41,14.57-5.91,4.46-2.49,8.13-5.18,11.02-8.07,2.62-1.83,4.85-3.41,6.69-4.72,1.83-1.31,3.94-1.97,6.3-1.97s4.66.85,6.89,2.56c2.23,1.71,4.66,4.27,7.28,7.68,2.36,2.36,3.74,4.86,4.13,7.48.39,2.63-.07,5.19-1.38,7.68-1.32,2.5-3.41,4.79-6.3,6.89-4.2,4.2-9.78,8.21-16.73,12.01-6.96,3.81-14.5,6.89-22.64,9.25-8.14,2.36-16.14,3.54-24.02,3.54Z"/>
    <path class="cls-1" d="M912.88,452.3c4.98,3.94,7.68,7.74,8.07,11.42.39,3.68-1.51,8.01-5.71,12.99-3.15,3.67-5.97,6.16-8.46,7.48-2.5,1.31-5.06,1.44-7.68.39-2.63-1.05-5.78-3.02-9.45-5.91l-88.58-72.44v59.05c0,3.68-.46,6.83-1.38,9.45-.92,2.63-2.56,4.66-4.92,6.1-2.36,1.44-6.17,2.17-11.42,2.17s-8.73-.73-11.22-2.17c-2.5-1.45-4.07-3.54-4.72-6.3-.66-2.76-.98-5.97-.98-9.65v-242.52c0-3.67.39-6.89,1.18-9.65.79-2.76,2.42-4.85,4.92-6.3,2.49-1.44,6.23-2.17,11.22-2.17,5.25,0,9.06.73,11.42,2.17,2.36,1.45,3.94,3.54,4.72,6.3.79,2.76,1.18,6.1,1.18,10.04v138.98l64.96-62.2c2.89-2.88,5.71-4.92,8.46-6.1,2.76-1.18,5.51-1.38,8.27-.59,2.76.79,5.57,2.89,8.46,6.3,4.72,5.25,7.02,9.65,6.89,13.19-.14,3.54-2.56,7.55-7.28,12.01l-63.78,60.24,85.83,67.72Z"/>
  </g>
</svg>